<svg xmlns="http://www.w3.org/2000/svg" viewBox="0 0 99.4 24" style="enable-background:new 0 0 99.4 24" xml:space="preserve"><g style="opacity:.9"><path d="M26.2 24c-3.2 0-6.2-1.2-8.4-3.5l-6.6-6.6c-.8-.8-1.2-1.8-1.2-2.9s.4-2.1 1.2-2.9C11.9 7.4 12.9 7 14 7c1.1 0 2.1.4 2.9 1.2l6.1 6.1c.7.7 1.9.7 2.6 0 .3-.3.5-.8.5-1.3s-.2-1-.5-1.3L19 5.1c-2-1.9-4.4-2.9-7-2.9-2.7 0-5.1 1-7 2.9-1.8 1.9-2.8 4.4-2.8 7 .1 2.6 1.1 5 2.9 6.8 1.8 1.8 4.3 2.8 6.8 2.8.9 0 1.9-.1 2.8-.4.6-.2 1.2.2 1.4.8.2.6-.2 1.2-.8 1.4-1 .4-2.1.5-3.3.5-3.2 0-6.2-1.2-8.4-3.4C1.3 18.4.1 15.4 0 12.3c0-1.7.3-3.3.9-4.8.6-1.5 1.4-2.8 2.5-3.9s2.4-2 3.8-2.6c1.5-.6 3.1-1 4.7-1 3.2 0 6.2 1.2 8.4 3.5l6.6 6.6c.8.8 1.2 1.8 1.2 2.9 0 1.1-.4 2.1-1.2 2.9-1.6 1.6-4.2 1.6-5.7 0l-6.1-6.1c-.7-.7-1.9-.7-2.6 0-.3.3-.5.8-.5 1.3s.2 1 .5 1.3l6.6 6.6c1.8 1.8 4.3 2.8 6.9 2.8 2.6 0 5.1-1 6.9-2.9 1.8-1.8 2.9-4.3 2.9-6.9 0-2.6-1-5.1-2.9-6.9-1.8-1.8-4.3-2.9-6.9-2.9-.8 0-1.7.1-2.5.3-.1 0-.2.1-.3.1-.6.2-1.2-.2-1.4-.8-.2-.6.2-1.2.8-1.4.1 0 .3-.1.4-.1 1-.3 2-.4 3-.4 1.6 0 3.2.3 4.7.9 1.4.6 2.7 1.5 3.8 2.6 1.1 1.1 2 2.4 2.6 3.8.6 1.5.9 3.1.9 4.7 0 3.2-1.3 6.2-3.5 8.5-2.1 2.4-5.1 3.6-8.3 3.6z" style="fill:#226db4"/></g><path d="M61.3 17.9c.2 0 .3.1.4.2l1.1 1.2c-.7.8-1.6 1.5-2.6 2s-2.3.7-3.7.7c-1.3 0-2.4-.2-3.5-.7s-1.9-1-2.7-1.8c-.7-.8-1.3-1.7-1.7-2.8-.4-1.1-.6-2.3-.6-3.6s.2-2.5.6-3.6c.4-1.1 1-2 1.8-2.8s1.7-1.4 2.7-1.8c1.1-.4 2.2-.6 3.5-.6 1.3 0 2.4.2 3.4.6 1 .4 1.8.9 2.5 1.6l-.9 1.3c-.1.1-.1.2-.2.2-.1.1-.2.1-.4.1s-.3-.1-.6-.2c-.2-.1-.5-.3-.8-.5-.3-.2-.7-.3-1.2-.5-.5-.1-1.1-.2-1.8-.2-.8 0-1.6.1-2.3.4-.7.3-1.3.7-1.8 1.3-.5.6-.9 1.2-1.2 2-.3.8-.4 1.7-.4 2.7 0 1 .1 1.9.4 2.7.3.8.7 1.5 1.2 2s1.1 1 1.8 1.3c.7.3 1.4.4 2.2.4.5 0 .9 0 1.3-.1s.7-.1 1.1-.3.6-.3.9-.4l.9-.6c.2-.1.4-.2.6-.2zM78.6 21.8h-2.5c-.5 0-.9-.2-1.1-.6l-4.1-5.8c-.1-.2-.3-.3-.5-.4-.2-.1-.4-.1-.7-.1h-1.6v7h-2.9V4.5h5.2c1.2 0 2.1.1 3 .3s1.5.6 2.1 1c.5.4.9.9 1.2 1.5.3.6.4 1.3.4 2 0 .6-.1 1.2-.3 1.7-.2.5-.4 1-.8 1.4-.3.4-.8.8-1.3 1.1-.5.3-1.1.6-1.7.7.3.2.7.5.9.9l4.7 6.7zm-8.2-9.1c.7 0 1.2-.1 1.7-.2.5-.2.9-.4 1.2-.7.3-.3.6-.6.7-1 .2-.4.2-.8.2-1.3 0-.9-.3-1.7-1-2.2s-1.6-.7-2.9-.7H68v6.1h2.4zM99.4 4.5v17.3h-2.5V9.3c0-.2 0-.5.1-.7l-5.6 10.3c-.2.4-.6.6-1 .6H90c-.5 0-.8-.2-1-.6L83.2 8.5c0 .2 0 .5.1.7s0 .4 0 .6v11.9h-2.5V4.5h2.1c.3 0 .4 0 .6.1.1 0 .3.2.4.4l5.6 10c.1.2.2.5.3.7.1.2.2.5.3.8.1-.3.2-.5.3-.8.1-.3.2-.5.3-.7l5.5-10c.1-.2.2-.4.4-.4.1 0 .3-.1.6-.1h2.2z"/></svg>